<?xml version="1.0" encoding="iso-8859-1"?>
<!-- Generator: Adobe Illustrator 16.0.0, SVG Export Plug-In . SVG Version: 6.00 Build 0)  -->
<!DOCTYPE svg PUBLIC "-//W3C//DTD SVG 1.1//EN" "http://www.w3.org/Graphics/SVG/1.1/DTD/svg11.dtd">
<svg version="1.1" id="Capa_1" xmlns="http://www.w3.org/2000/svg" xmlns:xlink="http://www.w3.org/1999/xlink" x="0px" y="0px"
	 width="239.155px" height="239.155px" viewBox="0 0 239.155 239.155" style="enable-background:new 0 0 239.155 239.155;"
	 xml:space="preserve">
<g>
	<path d="M148.579,209.397H0c0-30.263,19.857-63.481,47.791-73.695c-5.999-6.088-10.355-7.932-12.537-21.917
		c-2.867,0.594-7.347-2.692-8.659-7.716c-1.345-5.122-2.229-13.37,0.688-14.15c0.86-0.225,1.762-0.05,2.651,0.399v-14.2
		c0-22.34-5.26-35.45,31.227-39.209l-0.334-0.083c0,0,13.214-2.258,20.797-9.079c0,0,13.666,6.797,18.846,11.541
		c13.288,12.196,18.953,21.358,18.475,36.812v14.207c0.89-0.449,1.791-0.629,2.65-0.393c2.908,0.78,1.372,9.363,0.019,14.469
		c-1.307,4.978-5.06,7.936-7.93,7.427c-2.137,13.299-6.792,15.391-13.285,21.751C128.535,145.668,148.579,178.993,148.579,209.397z
		 M198.637,147.288c5.456-5.332,9.375-7.105,11.184-18.288c2.399,0.437,5.562-2.058,6.679-6.242
		c1.123-4.291,2.424-11.502-0.029-12.161c-0.715-0.189-1.472-0.05-2.217,0.331V98.976c0.391-12.983-4.374-20.691-15.539-30.949
		c-4.368-3.987-15.853-9.708-15.853-9.708c-6.378,5.745-17.49,7.646-17.49,7.646l0.272,0.071
		c-30.684,3.147-26.256,14.189-26.256,32.958v11.955c-0.745-0.384-1.514-0.523-2.234-0.334c-2.447,0.642-1.708,7.592-0.579,11.896
		c1.11,4.22,4.87,6.998,7.275,6.502c1.839,11.738,5.497,13.287,10.545,18.43c-5.302,1.927-10.231,4.905-14.747,8.57
		c12.886,14.576,20.947,34.448,21.373,53.397h78.135C239.167,183.828,222.304,155.799,198.637,147.288z"/>
</g>
<g>
</g>
<g>
</g>
<g>
</g>
<g>
</g>
<g>
</g>
<g>
</g>
<g>
</g>
<g>
</g>
<g>
</g>
<g>
</g>
<g>
</g>
<g>
</g>
<g>
</g>
<g>
</g>
<g>
</g>
</svg>
